<?xml version="1.0" encoding="utf-8"?>
<!-- Generator: Adobe Illustrator 20.0.0, SVG Export Plug-In . SVG Version: 6.00 Build 0)  -->
<svg version="1.1" xmlns="http://www.w3.org/2000/svg" xmlns:xlink="http://www.w3.org/1999/xlink" x="0px" y="0px"
	 viewBox="0 0 343.7 329.2" style="enable-background:new 0 0 343.7 329.2;" xml:space="preserve">
<style type="text/css">
	.st0{fill:#E1E2FF;}
	.st1{fill:#8D84FB;}
	.st2{fill:#EFEDF8;}
	.st3{fill:#796FE5;}
	.st4{fill:url(#SVGID_1_);}
	.st5{opacity:0.2;fill:url(#SVGID_2_);}
	.st6{opacity:0.5;clip-path:url(#SVGID_4_);}
	.st7{opacity:0.5;fill:none;stroke:#FEFEFE;stroke-width:0.6868;stroke-linecap:round;stroke-linejoin:round;stroke-miterlimit:10;}
	.st8{fill:url(#SVGID_5_);}
	.st9{opacity:0.5;clip-path:url(#SVGID_7_);}
	.st10{opacity:0.2;fill:url(#SVGID_8_);}
	.st11{fill:url(#SVGID_9_);}
	
		.st12{opacity:0.25;fill:none;stroke:#FEFEFE;stroke-width:0.6868;stroke-linecap:round;stroke-linejoin:round;stroke-miterlimit:10;}
	.st13{opacity:0.2;fill:url(#SVGID_10_);}
	.st14{fill:#1D125C;}
	.st15{fill:url(#SVGID_11_);}
	.st16{opacity:0.2;fill:url(#SVGID_12_);}
	.st17{opacity:0.5;clip-path:url(#SVGID_14_);}
	.st18{opacity:0.5;fill:none;stroke:#FEFEFE;stroke-width:0.765;stroke-linecap:round;stroke-linejoin:round;stroke-miterlimit:10;}
	.st19{fill:url(#SVGID_15_);}
	.st20{opacity:0.5;clip-path:url(#SVGID_17_);}
	.st21{opacity:0.2;fill:url(#SVGID_18_);}
	.st22{fill:#FBBFCE;}
	.st23{fill:#F44A3B;}
	.st24{fill:url(#SVGID_19_);}
	.st25{fill:#F46856;}
	.st26{fill:url(#SVGID_20_);}
	.st27{fill:url(#SVGID_21_);}
	.st28{fill:url(#SVGID_22_);}
	.st29{fill:url(#SVGID_23_);}
	.st30{fill:url(#SVGID_24_);}
	.st31{fill:url(#SVGID_25_);}
	.st32{fill:#F44C3D;}
	.st33{fill:url(#SVGID_26_);}
	.st34{fill:url(#SVGID_27_);}
	.st35{fill:#F2F4FB;}
	.st36{fill:url(#SVGID_28_);}
</style>
<g id="BACKGROUND">
</g>
<g id="OBJECT">
</g>
<g id="DESIGNED_BY_FREEPIK">
	<g>
		<path class="st0" d="M58.2,278.2l226.6,0c13.8-18.2,14.8-46.1,8.6-68.1c-3.2-11.3-9-21.8-11-33.4c-2.8-16.1,2.2-32.8,0-49
			c-3.5-26.2-27-47.8-53.3-51.1c-26.3-3.2-53.3,11-67.4,33.4c-5.9,9.4-10.8,21.1-21.3,24.8c-13.2,4.7-26.6-6-40.5-8.2
			c-12.7-2-25.7,3.6-34.9,12.6s-14.7,21-18.2,33.4C37.3,206.4,38.9,248.9,58.2,278.2z"/>
		<g>
			<g>
				<path class="st1" d="M255.3,225.8H107.9c-2.7,0-5.1,1.3-6.6,3.6l-23.9,36.7c-0.8,1.3-1.3,2.8-1.3,4.3l0,0c0,4.3,3.5,7.9,7.9,7.9
					h195.1c4.3,0,7.9-3.5,7.9-7.9l0,0c0-1.5-0.4-3-1.3-4.3l-23.9-36.7C260.5,227.2,258,225.8,255.3,225.8z"/>
				<path class="st2" d="M260.7,259.4l-14.9-26.7c-1.1-2-3.3-3.3-5.7-3.3H113.6c-2.3,0-4.4,1.2-5.6,3.2l-15.4,26.7
					c-1,1.8,0.3,4,2.3,4h53.4h26.5h8.4h25.6h49.7C260.4,263.4,261.7,261.2,260.7,259.4z"/>
				<path class="st3" d="M266.6,246.3c0.6,2.2-0.8,4-3,4.1c-2.3,0.1-4.6-1.6-5.2-3.9c-0.6-2.2,0.8-4,3-4.1
					C263.7,242.3,266,244.1,266.6,246.3z"/>
			</g>
			<path class="st3" d="M287.1,270.4c0,4.3-3.5,7.9-7.9,7.9H84.1c-2.2,0-4.1-0.9-5.6-2.3c-1.4-1.4-2.3-3.4-2.3-5.6
				c0-0.8,0.1-1.6,0.4-2.3h210.1C286.9,268.8,287.1,269.6,287.1,270.4z"/>
		</g>
		<g>
			<g>
				<g>
					<linearGradient id="SVGID_1_" gradientUnits="userSpaceOnUse" x1="208.6096" y1="226.1487" x2="250.3836" y2="226.1487">
						<stop  offset="1.081080e-02" style="stop-color:#3B2DD1"/>
						<stop  offset="0.9946" style="stop-color:#5460DB"/>
					</linearGradient>
					<path class="st4" d="M208.6,263.4c0,0-2.7-57.7,41.6-74.4c0,0,3.9,44.6-24.3,74.4H208.6z"/>
					<linearGradient id="SVGID_2_" gradientUnits="userSpaceOnUse" x1="218.7232" y1="226.1505" x2="250.3815" y2="226.1505">
						<stop  offset="1.081080e-02" style="stop-color:#3B2DD1"/>
						<stop  offset="0.9946" style="stop-color:#5460DB"/>
					</linearGradient>
					<path class="st5" d="M225.9,263.4h-7.2c23.6-25,24.7-60.5,24.4-71.2c2.2-1.2,4.6-2.3,7.1-3.2
						C250.2,188.9,254.1,233.6,225.9,263.4z"/>
					<g>
						<defs>
							<path id="SVGID_3_" d="M208.6,263.4c0,0-2.7-57.7,41.6-74.4c0,0,3.9,44.6-24.3,74.4H208.6z"/>
						</defs>
						<clipPath id="SVGID_4_">
							<use xlink:href="#SVGID_3_"  style="overflow:visible;"/>
						</clipPath>
						<g class="st6">
							<path class="st7" d="M250.2,188.9c0,0-22.9,28.9-32.1,74.4"/>
							<path class="st7" d="M237.6,209.1c0,0,6.6-2,12.2-2.6"/>
							<path class="st7" d="M232.1,220.3c0,0-1.5-13.7-0.9-19.5"/>
							<path class="st7" d="M227.9,230.1c0,0,8.2-1.1,17.5-1.4"/>
							<path class="st7" d="M223.9,241.4c0,0-6.4-14.1-4.8-24.5"/>
							<path class="st7" d="M220.6,252.7c0,0,6.3-2.5,16.8-5.1"/>
							<path class="st7" d="M219.2,258.6c0,0-7.6-11.2-8.2-18.6"/>
						</g>
					</g>
				</g>
				<g>
					<linearGradient id="SVGID_5_" gradientUnits="userSpaceOnUse" x1="223.4163" y1="239.9874" x2="276.2992" y2="239.9874">
						<stop  offset="1.081080e-02" style="stop-color:#3B2DD1"/>
						<stop  offset="0.9946" style="stop-color:#5460DB"/>
					</linearGradient>
					<path class="st8" d="M223.4,263.4c0,0,0-48.1,52.9-46.7c0,0-8,31.4-34.8,46.7H223.4z"/>
					<g>
						<defs>
							<path id="SVGID_6_" d="M223.4,263.4c0,0,0-48.1,52.9-46.7c0,0-8,31.4-34.8,46.7H223.4z"/>
						</defs>
						<clipPath id="SVGID_7_">
							<use xlink:href="#SVGID_6_"  style="overflow:visible;"/>
						</clipPath>
						<g class="st9">
							<path class="st7" d="M276.3,216.6c0,0-33.7,15.3-44.2,46.7"/>
							<path class="st7" d="M259.6,227.1c0,0,6-0.6,12.7,0.4"/>
							<path class="st7" d="M250.9,234.6c0,0,0.5-11,3.8-15.2"/>
							<path class="st7" d="M243,243.4c0,0,11.5-1.1,19.5,1"/>
							<path class="st7" d="M237.9,250.9c0,0-2.3-12.2,1-22.5"/>
							<path class="st7" d="M233.8,258.8c0,0,7.2-2.1,16.5-1.6"/>
						</g>
					</g>
					<linearGradient id="SVGID_8_" gradientUnits="userSpaceOnUse" x1="234.176" y1="239.9885" x2="276.2969" y2="239.9885">
						<stop  offset="1.081080e-02" style="stop-color:#3B2DD1"/>
						<stop  offset="0.9946" style="stop-color:#5460DB"/>
					</linearGradient>
					<path class="st10" d="M276.3,216.7c0,0-8,31.4-34.8,46.7h-7.3c25.7-14.7,34.1-44.2,34.8-46.6
						C271.3,216.6,273.7,216.6,276.3,216.7z"/>
				</g>
				<g>
					<linearGradient id="SVGID_9_" gradientUnits="userSpaceOnUse" x1="207.8658" y1="257.7994" x2="212.2155" y2="207.4347">
						<stop  offset="1.081080e-02" style="stop-color:#3B2DD1"/>
						<stop  offset="0.9946" style="stop-color:#5460DB"/>
					</linearGradient>
					<path class="st11" d="M225.2,257.1c0.1,2.4-1,4.8-2.8,6.3h-24.3c-2.7-2.3-4.4-5.8-5.4-9.3c-1.2-4.2-0.7-8.9,1.3-12.8
						c1.1-2,2.5-3.8,3.1-6c0.5-1.9,0.3-3.9-0.2-5.8c-0.3-1.2-0.7-2.4-1.1-3.6c-1.1-3.2-2.3-6.5-1.5-9.7c0.9-3.7,4.1-6.4,6.1-9.7
						c2.4-4.1,2.7-9,2.9-13.8c0.3-4.7,0.7-9.7,3.3-13.6c2.6-4,8.2-6.4,12.2-4c3.2,1.9,4.4,6,4.1,9.7c-0.3,3.7-1.9,7.1-3,10.7
						c-1.1,3.5-1.9,7.4-0.6,10.9c1.1,2.9,3.6,5.2,4.5,8.2c1.1,3.5-0.1,7.3-1.5,10.6c-0.1,0.2-0.2,0.4-0.3,0.6
						c-0.5,1.2-1.1,2.4-1.6,3.6c-0.8,2-1.4,4-1.5,6.1c-0.2,3.8,1.4,7.4,2.9,10.8C223.4,249.8,225.1,253.3,225.2,257.1z"/>
					<path class="st12" d="M208.3,264.2c3.7-1.7,5.3-6.3,5-10.3c-0.3-4-2.2-7.8-3.7-11.5c-1.6-3.7-2.9-7.8-2.1-11.8
						c0.6-3,2.3-5.8,2.7-8.8c0.6-4.5-1.7-9-0.9-13.4c0.7-3.9,3.7-7,4.5-10.9c0.6-3.3-0.6-6.7-1.2-10.1s-0.6-7.3,1.9-9.6"/>
					<linearGradient id="SVGID_10_" gradientUnits="userSpaceOnUse" x1="214.55" y1="263.2106" x2="222.197" y2="174.6668">
						<stop  offset="1.081080e-02" style="stop-color:#3B2DD1"/>
						<stop  offset="0.9946" style="stop-color:#5460DB"/>
					</linearGradient>
					<path class="st13" d="M225.2,257.1c0.1,2.4-1,4.8-2.8,6.3h-6.2c1.8-1.5,2.9-3.9,2.8-6.3c-0.1-3.8-1.8-7.3-3.3-10.7
						c-1.6-3.4-3.1-7-2.9-10.8c0.1-2.1,0.7-4.1,1.5-6.1c0.5-1.2,1.1-2.4,1.6-3.6c0.1-0.2,0.2-0.4,0.3-0.6c1.5-3.4,2.6-7.1,1.5-10.6
						c-0.9-3-3.4-5.3-4.5-8.2c-1.3-3.5-0.6-7.4,0.6-10.9c1.1-3.5,2.7-7,3-10.7c0.3-3.7-0.9-7.8-4.1-9.7c-0.2-0.1-0.4-0.2-0.7-0.3
						c2.3-0.9,4.7-0.9,6.8,0.3c3.2,1.9,4.4,6,4.1,9.7c-0.3,3.7-1.9,7.1-3,10.7c-1.1,3.5-1.9,7.4-0.6,10.9c1.1,2.9,3.6,5.2,4.5,8.2
						c1.1,3.5-0.1,7.3-1.5,10.6c-0.1,0.2-0.2,0.4-0.3,0.6c-0.5,1.2-1.1,2.4-1.6,3.6c-0.8,2-1.4,4-1.5,6.1c-0.2,3.8,1.4,7.4,2.9,10.8
						C223.4,249.8,225.1,253.3,225.2,257.1z"/>
				</g>
				<g>
					<g>
						<path class="st14" d="M225.5,263.4c0,0,12.2-37.2,37.7-44.1c0,0-24,9-34.8,44.1H225.5z"/>
						<path class="st14" d="M257.5,221.4c0,0,14.4-8.8,30,2.9C287.5,224.3,268.8,229.6,257.5,221.4z"/>
						<path class="st14" d="M245.9,231c0,0,11.6-8.3,3.8-27C249.7,204,240.3,215.1,245.9,231z"/>
					</g>
					<g>
						<path class="st14" d="M225.5,263.4c0,0,8.3-25.4,25.7-30c0,0-16.4,6.1-23.7,30H225.5z"/>
						<path class="st14" d="M248.8,233.9c0,0,10.9-3.5,19.4,6.9C268.2,240.7,254.9,241.2,248.8,233.9z"/>
						<path class="st14" d="M237.7,243.3c0,0,5.6-8-3.8-18.2C233.9,225.2,230.4,234.5,237.7,243.3z"/>
					</g>
				</g>
			</g>
			<g>
				<g>
					<linearGradient id="SVGID_11_" gradientUnits="userSpaceOnUse" x1="98.9298" y1="225.6388" x2="155.9747" y2="225.6388">
						<stop  offset="1.081080e-02" style="stop-color:#3B2DD1"/>
						<stop  offset="0.9946" style="stop-color:#5460DB"/>
					</linearGradient>
					<path class="st15" d="M156,263.4h-22.6c-9.9-8.9-17-19.5-22-29.8c-3.3-6.8-5.7-13.5-7.5-19.6c-0.1-0.3-0.2-0.7-0.3-1
						c-0.2-0.6-0.4-1.2-0.5-1.8c-0.2-0.8-0.4-1.6-0.6-2.4c-0.1-0.6-0.3-1.1-0.4-1.7c-0.1-0.3-0.2-0.7-0.2-1
						c-0.1-0.3-0.1-0.6-0.2-0.9c-0.2-0.8-0.3-1.5-0.5-2.2c-0.1-0.5-0.2-1-0.3-1.4c-0.1-0.3-0.1-0.6-0.2-0.9c0-0.1,0-0.1,0-0.2
						c-1.4-7.5-1.6-12.3-1.6-12.3c0.3,0.1,0.6,0.1,0.9,0.2c0.4,0.1,0.8,0.2,1.2,0.3c0.4,0.1,0.7,0.2,1.1,0.3c0.4,0.1,0.7,0.2,1,0.3
						c1.4,0.4,2.7,0.9,4,1.4c20.2,7.5,32.1,23.8,39.1,39C153.8,245.6,155.7,260.6,156,263.4z"/>
					<linearGradient id="SVGID_12_" gradientUnits="userSpaceOnUse" x1="98.9367" y1="225.6422" x2="142.5617" y2="225.6422">
						<stop  offset="1.081080e-02" style="stop-color:#3B2DD1"/>
						<stop  offset="0.9946" style="stop-color:#5460DB"/>
					</linearGradient>
					<path class="st16" d="M142.6,263.4h-9.2c-9.9-8.9-17-19.5-22-29.8c-3.3-6.8-5.7-13.5-7.5-19.6c-0.1-0.3-0.2-0.7-0.3-1
						c-0.2-0.6-0.4-1.2-0.5-1.8c-0.2-0.8-0.4-1.6-0.6-2.4c-0.1-0.6-0.3-1.1-0.4-1.7c-0.1-0.3-0.2-0.7-0.2-1
						c-0.1-0.3-0.1-0.6-0.2-0.9c-0.2-0.8-0.3-1.5-0.5-2.2c-0.1-0.5-0.2-1-0.3-1.4c-0.1-0.3-0.1-0.6-0.2-0.9c0-0.1,0-0.1,0-0.2
						c-1.4-7.5-1.6-12.3-1.6-12.3c0.3,0.1,0.6,0.1,0.9,0.2c0.4,0.1,0.8,0.2,1.2,0.3c0.4,0.1,0.7,0.2,1.1,0.3c0.4,0.1,0.7,0.2,1,0.3
						c1.4,0.4,2.7,0.9,4,1.4c0.8,6.8,3.2,22.4,10.7,39C123.2,241.2,131,253.4,142.6,263.4z"/>
					<g>
						<defs>
							<path id="SVGID_13_" d="M156.4,263.4c0,0-6.2-63.6-57.5-75.4c0,0,1.9,46,34.4,75.4H156.4z"/>
						</defs>
						<clipPath id="SVGID_14_">
							<use xlink:href="#SVGID_13_"  style="overflow:visible;"/>
						</clipPath>
						<g class="st17">
							<path class="st18" d="M98.9,187.9c0,0,29.6,28.4,46.6,77.3"/>
							<path class="st18" d="M115.9,208.3c0,0-7.6-1.3-13.8-1.1"/>
							<path class="st18" d="M123.6,219.8c0,0-0.4-15.4-2-21.6"/>
							<path class="st18" d="M129.7,230c0,0-9.2,0-19.5,1.1"/>
							<path class="st18" d="M135.9,241.8c0,0,5-16.5,1.7-27.7"/>
							<path class="st18" d="M141.2,253.8c0,0-7.4-1.8-19.3-3"/>
							<path class="st18" d="M143.7,260.1c0,0,6.7-13.5,6.3-21.8"/>
						</g>
					</g>
				</g>
				<g>
					
						<linearGradient id="SVGID_15_" gradientUnits="userSpaceOnUse" x1="216.6298" y1="237.2235" x2="275.5374" y2="237.2235" gradientTransform="matrix(-1 0 0 1 347.0704 0)">
						<stop  offset="1.081080e-02" style="stop-color:#3B2DD1"/>
						<stop  offset="0.9946" style="stop-color:#5460DB"/>
					</linearGradient>
					<path class="st19" d="M130.4,263.3c0,0,0-53.6-58.9-52c0,0,8.9,34.9,38.8,52H130.4z"/>
					<g>
						<defs>
							<path id="SVGID_16_" d="M130.4,263.3c0,0,0-53.6-58.9-52c0,0,8.9,34.9,38.8,52H130.4z"/>
						</defs>
						<clipPath id="SVGID_17_">
							<use xlink:href="#SVGID_16_"  style="overflow:visible;"/>
						</clipPath>
						<g class="st20">
							<path class="st18" d="M71.5,211.2c0,0,37.5,17.1,49.2,52"/>
							<path class="st18" d="M90.1,222.9c0,0-6.7-0.7-14.1,0.5"/>
							<path class="st18" d="M99.8,231.2c0,0-0.5-12.2-4.3-17"/>
							<path class="st18" d="M108.6,241c0,0-12.8-1.2-21.7,1.1"/>
							<path class="st18" d="M114.3,249.4c0,0,2.5-13.6-1.1-25.1"/>
							<path class="st18" d="M118.8,258.2c0,0-8-2.4-18.4-1.8"/>
						</g>
					</g>
					
						<linearGradient id="SVGID_18_" gradientUnits="userSpaceOnUse" x1="228.6153" y1="237.2247" x2="275.5347" y2="237.2247" gradientTransform="matrix(-1 0 0 1 347.0704 0)">
						<stop  offset="1.081080e-02" style="stop-color:#3B2DD1"/>
						<stop  offset="0.9946" style="stop-color:#5460DB"/>
					</linearGradient>
					<path class="st21" d="M71.5,211.2c0,0,8.9,34.9,38.8,52h8.2c-28.7-16.4-38-49.3-38.7-51.9C77.1,211.2,74.4,211.2,71.5,211.2z"
						/>
				</g>
				<g>
					<g>
						<path class="st14" d="M133.4,263.3c0,0-16.9-51.6-52.2-61.1c0,0,33.3,12.4,48.2,61.1H133.4z"/>
						<path class="st14" d="M89,205.1c0,0-19.9-12.2-41.6,4.1C47.4,209.2,73.4,216.5,89,205.1z"/>
						<path class="st14" d="M105.1,218.4c0,0-16.1-11.5-5.2-37.4C99.8,181,112.8,196.4,105.1,218.4z"/>
					</g>
					<g>
						<path class="st14" d="M134,263.3c0,0-10.4-31.7-32.1-37.6c0,0,20.5,7.6,29.6,37.6H134z"/>
						<path class="st14" d="M104.8,226.4c0,0-13.7-4.4-24.2,8.6C80.6,235,97.2,235.6,104.8,226.4z"/>
						<path class="st14" d="M118.7,238.2c0,0-6.9-10,4.7-22.7C123.4,215.5,127.8,227.1,118.7,238.2z"/>
					</g>
				</g>
			</g>
		</g>
		<g>
			<path class="st14" d="M220.1,263.4h-28.8c-7.5-7-14.4-14.4-14.4-14.4c-6.1,7.6-8.2,10.6-11,14.4h-28.1c3.6-12.3,8.5-28.2,11-36.7
				c0.1-0.5,0.3-0.9,0.4-1.3c0.9-2.8,1.4-4.5,1.4-4.5c6.5,2.2,12.7,3.7,18.5,4.5c12.2,1.8,22.6,1.1,29.5,0c5.8-0.9,9.2-2,9.2-2
				c0.1,0.6,0.2,1.3,0.3,2c0.3,1.8,0.9,3.9,1.5,6.3C212.2,241.1,216.8,254.2,220.1,263.4z"/>
			<g>
				<path class="st22" d="M182.2,155L182.2,155c-4.2,0-7.5-3.4-7.5-7.5v-25.5h15.1v25.5C189.7,151.6,186.4,155,182.2,155z"/>
				<g>
					<path class="st22" d="M175.2,135.1L175.2,135.1c-7.7-0.6-13.5-7.3-12.9-15l1.6-21.3l27.9,2.1l-1.6,21.3
						C189.6,130,182.9,135.7,175.2,135.1z"/>
					<circle class="st22" cx="163.5" cy="112.7" r="3.7"/>
				</g>
				<path class="st14" d="M201.8,101.3c0.6-7.5-5.1-14-12.5-14.6l-38.4-2.9c-1.8,7.4,3.4,14.3,10.6,14.8l27,2l-1.8,24.4
					c-2.8,1-6.9,3.2-9.4,8c0,0-2.6-9.9-14.8-9.1c0,0-2,3.1-2.6,7.5c-0.9,6.9,6.8,11.7,12.6,7.7c0.1,0,0.1-0.1,0.2-0.1
					c0,0,15.8,2.6,16.9-10.7l0.1,0l0.3-4c6.5-3.1,10.8-9.4,11.3-16.5l0.4-5.7c0-0.1,0-0.3,0-0.4l0,0L201.8,101.3z"/>
			</g>
			<g>
				<g>
					<path class="st23" d="M110.6,156L110.6,156c-1.6-0.5-2.5-2.2-2-3.7l9.3-30.9c0.5-1.6,2.2-2.5,3.7-2l0,0c1.6,0.5,2.5,2.2,2,3.7
						l-9.3,30.9C113.9,155.6,112.2,156.5,110.6,156z"/>
					<linearGradient id="SVGID_19_" gradientUnits="userSpaceOnUse" x1="74.7244" y1="105.6465" x2="133.7989" y2="105.6465">
						<stop  offset="0" style="stop-color:#FFA897"/>
						<stop  offset="1" style="stop-color:#F43E3B"/>
					</linearGradient>
					<path class="st24" d="M125,127.8c-7.6-2.5-30.3-8.7-50.3,0.4l8.8-45.1c0,0,7.2,17.8,46.4,26.3c1.9,0.4,3.3,1.9,3.6,3.8
						c0.5,3.2,0.5,8.4-3.6,13.2C128.8,127.9,126.8,128.4,125,127.8z"/>
					<path class="st25" d="M84.6,107.3c-2.6,11.9-8.1,21.1-12.8,22.2c-0.6,0.1-1.1,0.1-1.7,0c-5.1-1.1-6.8-12.9-3.8-26.2
						c2.9-13.4,9.4-23.3,14.5-22.2c1,0.2,1.8,0.8,2.5,1.7C86.3,86.7,87,96.5,84.6,107.3z"/>
					<path class="st23" d="M85.7,101.2c-0.2,2-0.6,4-1,6.1c-0.8,3.5-1.8,6.7-2.9,9.6c-2.8,7-6.5,11.8-9.9,12.5
						c-2.6-3.3-3.4-10.8-2.2-19.5l0,0c0-0.1,0-0.1,0-0.2c0.2-1.6,0.5-3.2,0.9-4.8c0.4-1.8,0.8-3.5,1.3-5.1c0,0,0-0.1,0-0.1
						c2.9-9.3,7.4-16,11.5-16.9C85.8,86,86.7,93,85.7,101.2z"/>
					<linearGradient id="SVGID_20_" gradientUnits="userSpaceOnUse" x1="111.4804" y1="117.0472" x2="134.584" y2="117.0472">
						<stop  offset="1.081080e-02" style="stop-color:#3B2DD1"/>
						<stop  offset="0.9946" style="stop-color:#5460DB"/>
					</linearGradient>
					<path class="st26" d="M116.6,107.5c-0.5,3.6-1.7,9.6-4.9,15.4c-0.6,1,0,2.3,1.1,2.6c2.7,0.6,7.3,1.7,10.9,2.9
						c2.7,0.9,5.6,0.1,7.5-2c2.4-2.7,4.6-7.3,2.5-14.5c-0.5-1.7-1.9-3-3.6-3.4c-2.6-0.7-6.8-1.8-10.3-3
						C118.4,105,116.8,105.9,116.6,107.5z"/>
					<g>
						<linearGradient id="SVGID_21_" gradientUnits="userSpaceOnUse" x1="67.8292" y1="108.3127" x2="85.6557" y2="108.3127">
							<stop  offset="1.081080e-02" style="stop-color:#3B2DD1"/>
							<stop  offset="0.9946" style="stop-color:#5460DB"/>
						</linearGradient>
						<path class="st27" d="M85.7,101.2c-0.2,2-0.6,4-1,6.1c-0.8,3.5-1.8,6.7-2.9,9.6c-1.9-2.2-9-5.5-12.1-6.9l0,0
							c-0.1-0.1-0.3-0.1-0.4-0.2c0,0,0,0,0,0c-0.8-0.3-1.2-1.1-1.3-1.9c-0.1-3,1.1-5.6,2-7.1c0.4-0.6,1-1,1.7-1c0.1,0,0.2,0,0.2,0
							c0.1,0,0.1,0,0.2,0C79.1,100.6,85.4,101.2,85.7,101.2z"/>
						
							<ellipse transform="matrix(0.2161 -0.9764 0.9764 0.2161 -47.2318 150.5293)" class="st14" cx="70.1" cy="104.7" rx="5.2" ry="2.7"/>
					</g>
					<g>
						
							<linearGradient id="SVGID_22_" gradientUnits="userSpaceOnUse" x1="40.551" y1="97.0407" x2="57.2131" y2="97.0407" gradientTransform="matrix(0.9836 0.1801 -0.1801 0.9836 17.6626 -20.1971)">
							<stop  offset="1.081080e-02" style="stop-color:#3B2DD1"/>
							<stop  offset="0.9946" style="stop-color:#5460DB"/>
						</linearGradient>
						<polygon class="st28" points="55.5,90.6 45.4,76.2 40.3,81.5 53.9,92.4 						"/>
						<linearGradient id="SVGID_23_" gradientUnits="userSpaceOnUse" x1="28.8094" y1="99.8232" x2="52.3943" y2="96.669">
							<stop  offset="1.081080e-02" style="stop-color:#3B2DD1"/>
							<stop  offset="0.9946" style="stop-color:#5460DB"/>
						</linearGradient>
						<polygon class="st29" points="52.7,98.9 29.9,93.5 28.9,100.5 52.1,102.9 						"/>
						
							<linearGradient id="SVGID_24_" gradientUnits="userSpaceOnUse" x1="41.718" y1="94.9632" x2="60.2779" y2="92.4811" gradientTransform="matrix(0.963 -0.2693 0.2693 0.963 -31.2418 38.2299)">
							<stop  offset="1.081080e-02" style="stop-color:#3B2DD1"/>
							<stop  offset="0.9946" style="stop-color:#5460DB"/>
						</linearGradient>
						<polygon class="st30" points="50.7,109.2 33.4,115.9 36.1,120.8 52.3,112.5 						"/>
					</g>
				</g>
				<g>
					<path class="st22" d="M115.6,158.3c0.8-2.3,1.7-4.5,2.8-6.7c2.1-0.5,3.6-1.8,4.6-3.7c1-1.9,1.5-4.1,2-6.2
						c0.2-1.1,0.5-2.2,0.7-3.3c0.3-1.5,0.6-3,0.2-4.5c-0.2-0.7-0.6-1.3-1.3-1.5c-0.7-0.2-1.4,0.3-1.9,0.8c-1.9,2.2-1.6,5.8-3.6,8
						c-1.1,1.2-2.8,1.7-4.3,2c-1.6,0.3-3.2,0.4-4.8,0.9c0,0,0,0,0,0c-2,0.7-3.3,2.7-3.4,4.9c0,3.2,0.4,5.8,2,8.4
						c0.4,0.6,1.1,1,1.8,0.9c1.1-0.1,2.4,0.3,3.7,0C114.7,158.3,115.4,158.9,115.6,158.3z"/>
					<path class="st22" d="M106.2,133.7c1.3-1,3.3-1.1,4.9-1.1c2.4-0.1,4.8,0.3,6.8,1.5c1.8,1,3.5,2.6,3.6,4.7
						c0,0.8-0.2,1.6-0.4,2.4c-0.2,0.5-0.3,1.1-0.5,1.6c-0.3,1-0.6,2-1.1,2.8c-1,1.6-2.7,2.7-4.6,3.1c-1.9,0.4-3.8,0.2-5.7-0.4
						c-1.5-0.5-3-1.2-4-2.4c-2-2.4-1.4-6.1-0.7-8.9c0.2-0.8,0.4-1.6,0.8-2.4C105.6,134.2,105.9,133.9,106.2,133.7z"/>
				</g>
				<linearGradient id="SVGID_25_" gradientUnits="userSpaceOnUse" x1="136.5826" y1="167.1012" x2="209.6965" y2="213.0425">
					<stop  offset="0" style="stop-color:#FFA897"/>
					<stop  offset="1" style="stop-color:#F43E3B"/>
				</linearGradient>
				<path class="st31" d="M189.7,147.4h-15.1c0,0-6.6,3.8-13.5,16.1c-9.1,4.4-21.5,9.9-32.1,12.9c-5.7,1.6-11.5-2.4-11.9-8.3
					c-0.2-2.6-0.2-5.6,0-9.1c0.2-3.8-3.7-6.6-7.1-5c-0.1,0-0.1,0.1-0.2,0.1c-1.5,0.7-2.5,2.1-2.8,3.7c-0.4,2-0.9,5.5-1.1,9.7
					c-0.8,14.4,10.8,26.5,25.2,26.4c5.7,0,12.3-0.5,19.2-1.6c-0.4,1.5-0.7,3-1,4.6c-1.6,7.6-2.8,16.3-3.6,26.3
					c0,0,17.9,28.5,66.1,7.5C211.9,230.7,206.7,165.6,189.7,147.4z"/>
				<path class="st32" d="M177,185.5c0,0-10.1,9.3-27.7,11.4c0.3-1.7,0.7-3.3,1.1-4.8v0C150.5,192,167.4,189,177,185.5z"/>
			</g>
		</g>
		<g>
			<g>
				<linearGradient id="SVGID_26_" gradientUnits="userSpaceOnUse" x1="239.1228" y1="165.4314" x2="258.3586" y2="165.4314">
					<stop  offset="1.081080e-02" style="stop-color:#3B2DD1"/>
					<stop  offset="0.9946" style="stop-color:#5460DB"/>
				</linearGradient>
				<circle class="st33" cx="248.7" cy="165.4" r="9.6"/>
				<g>
					<path class="st0" d="M248.1,170.1c-1.1-0.2-1.7-1.1-1.7-2.4v-0.7h1.5v0.8c0,0.6,0.3,0.9,0.8,0.9s0.8-0.3,0.8-0.9
						c0-0.7-0.3-1.2-1.3-2.1c-1.3-1-1.7-1.8-1.7-2.9c0-1.2,0.6-2.1,1.7-2.3v-0.9h1.3v0.9c1.1,0.2,1.7,1.1,1.7,2.3v0.3h-1.5v-0.4
						c0-0.6-0.3-0.9-0.8-0.9c-0.5,0-0.8,0.3-0.8,0.9c0,0.7,0.3,1.2,1.3,2c1.3,1,1.7,1.8,1.7,3c0,1.3-0.6,2.2-1.7,2.4v1h-1.3V170.1z"
						/>
				</g>
			</g>
			<g>
				<linearGradient id="SVGID_27_" gradientUnits="userSpaceOnUse" x1="241.9689" y1="136.6425" x2="260.1966" y2="136.6425">
					<stop  offset="1.081080e-02" style="stop-color:#3B2DD1"/>
					<stop  offset="0.9946" style="stop-color:#5460DB"/>
				</linearGradient>
				<circle class="st34" cx="251.1" cy="136.6" r="9.1"/>
				<polygon class="st35" points="248.6,141.8 248.6,131.5 256.4,136.6 				"/>
			</g>
			<g>
				<linearGradient id="SVGID_28_" gradientUnits="userSpaceOnUse" x1="207.2437" y1="147.4373" x2="232.8207" y2="147.4373">
					<stop  offset="1.081080e-02" style="stop-color:#3B2DD1"/>
					<stop  offset="0.9946" style="stop-color:#5460DB"/>
				</linearGradient>
				<circle class="st36" cx="220" cy="147.4" r="12.8"/>
				<path class="st35" d="M223.8,140.5c-1.2,0-2.5,0.5-3.7,2c-1.3-1.5-2.6-2-3.7-2c-2.4,0-4.2,2.1-4,4.5c0.4,6.1,7.7,9.4,7.7,9.4
					s7.4-3.3,7.7-9.4C227.9,142.6,226.1,140.5,223.8,140.5z"/>
			</g>
		</g>
	</g>
</g>
</svg>
